<?xml version="1.0" standalone="no"?>
<!DOCTYPE svg PUBLIC "-//W3C//DTD SVG 20010904//EN"
 "http://www.w3.org/TR/2001/REC-SVG-20010904/DTD/svg10.dtd">
<svg version="1.0" xmlns="http://www.w3.org/2000/svg"
 width="544.000000pt" height="544.000000pt" viewBox="0 0 544.000000 544.000000"
 preserveAspectRatio="xMidYMid meet">
<metadata>
Created by potrace 1.14, written by Peter Selinger 2001-2017
</metadata>
<g transform="translate(0.000000,544.000000) scale(0.100000,-0.100000)"
fill="#000000" stroke="none">
<path d="M1489 5356 c-2 -2 -33 -7 -69 -11 -36 -4 -68 -9 -71 -11 -4 -2 -24
-6 -45 -10 -60 -9 -229 -62 -291 -91 -32 -14 -67 -28 -78 -30 -10 -2 -22 -7
-25 -12 -3 -5 -30 -21 -60 -36 -48 -24 -169 -103 -233 -153 -56 -44 -249 -245
-294 -307 -73 -100 -148 -232 -194 -340 -44 -103 -86 -241 -95 -310 -3 -22 -8
-47 -10 -55 -16 -47 -19 -232 -19 -1285 0 -932 3 -1176 14 -1240 17 -105 18
-107 29 -149 6 -20 8 -36 5 -36 -3 0 -1 -6 4 -12 6 -7 20 -48 33 -90 13 -43
28 -78 32 -78 5 0 7 -4 4 -8 -9 -15 131 -275 181 -337 5 -5 22 -28 38 -50 32
-43 249 -263 276 -280 9 -5 52 -36 95 -67 184 -132 446 -235 705 -275 70 -10
2366 -11 2439 0 132 20 270 56 385 102 69 27 205 94 215 104 3 3 21 14 40 25
19 10 76 49 125 86 248 187 430 426 546 717 17 43 33 85 35 93 2 8 10 40 19
70 22 79 43 195 51 281 8 85 9 2189 1 2294 -10 121 -38 260 -79 385 -30 92
-117 275 -166 349 -23 34 -42 67 -42 72 0 5 -3 9 -7 9 -5 0 -19 17 -33 37 -81
121 -269 295 -427 396 -124 79 -354 181 -455 201 -13 2 -52 11 -88 20 -36 8
-83 18 -105 22 -41 7 -2379 17 -2386 10z"/>
<path d="M4862 502 c-7 -19 12 -29 53 -27 l35 2 0 -118 c0 -119 0 -119 24
-119 23 0 24 1 24 108 0 59 0 112 1 118 1 7 18 11 41 10 22 -1 41 2 42 6 5 31
1 32 -106 33 -84 1 -109 -2 -114 -13z"/>
<path d="M5134 509 c-2 -4 -4 -68 -3 -143 1 -134 1 -135 22 -127 21 8 22 14
21 115 0 58 0 106 1 106 1 0 21 -49 45 -110 36 -92 47 -110 65 -110 15 0 25
10 34 38 8 20 18 48 24 62 6 14 11 27 12 30 0 3 10 25 21 50 l20 45 -2 -110
c-1 -60 0 -113 2 -117 2 -3 13 -4 24 -1 20 5 20 12 18 141 l-3 136 -28 1 c-34
2 -36 0 -82 -118 -38 -95 -39 -97 -51 -70 -26 57 -64 157 -64 170 0 14 -2 15
-43 17 -16 1 -30 -1 -33 -5z"/>
</g>
</svg>
