<?xml version="1.0" encoding="UTF-8"?>
<svg width="24px" height="24px" viewBox="0 0 24 24" version="1.1" xmlns="http://www.w3.org/2000/svg" xmlns:xlink="http://www.w3.org/1999/xlink">
    <title>Group</title>
    <g id="Page-1" stroke="none" stroke-width="1" fill="none" fill-rule="evenodd">
        <g id="Group" transform="translate(-0.000000, -0.000000)">
            <path d="M13.2426381,19.2426381 C10.8994888,21.5857874 7.10049794,21.5857874 4.757362,19.2426381 C2.41421273,16.8994888 2.41421273,13.1004979 4.757362,10.757362 C7.10051127,8.41421273 10.8995022,8.41421273 13.2426381,10.757362 C15.5857874,13.1005113 15.5857874,16.8995022 13.2426381,19.2426381 Z" id="Path" fill="#6D7278" opacity="0.5" transform="translate(9.000000, 15.000000) rotate(-180.000000) translate(-9.000000, -15.000000) "></path>
            <polygon id="Path" points="0 0 24.0000001 0 24.0000001 24.0000001 0 24.0000001"></polygon>
            <path d="M16.2425781,13.2426381 C13.8994289,15.5857874 10.100438,15.5857874 7.75730204,13.2426381 C5.41415277,10.8994888 5.41415277,7.10049794 7.75730204,4.757362 C10.1004513,2.41421273 13.8994422,2.41421273 16.2425781,4.757362 C18.5857274,7.10051127 18.5857274,10.8995022 16.2425781,13.2426381 Z" id="Path" fill="#6D7278" opacity="0.6" transform="translate(11.999940, 9.000000) rotate(-180.000000) translate(-11.999940, -9.000000) "></path>
            <path d="M19.2426381,19.2426381 C16.8994888,21.5857874 13.1004979,21.5857874 10.757362,19.2426381 C8.41421273,16.8994888 8.41421273,13.1004979 10.757362,10.757362 C13.1005113,8.41421273 16.8995022,8.41421273 19.2426381,10.757362 C21.5857874,13.1005113 21.5857874,16.8995022 19.2426381,19.2426381 Z" id="Path" fill="#6D7278" opacity="0.8" transform="translate(15.000000, 15.000000) rotate(-180.000000) translate(-15.000000, -15.000000) "></path>
        </g>
    </g>
</svg>