<?xml version="1.0" encoding="UTF-8"?>
<svg width="24px" height="24px" viewBox="0 0 24 24" version="1.1" xmlns="http://www.w3.org/2000/svg" xmlns:xlink="http://www.w3.org/1999/xlink">
    <title>Untitled 6</title>
    <g id="Page-1" stroke="none" stroke-width="1" fill="none" fill-rule="evenodd">
        <g id="Group">
            <g stroke-linecap="round" stroke-linejoin="round" transform="translate(2.000000, 2.000000)" id="Path" stroke="#323232" stroke-width="1.5">
                <path d="M11.574,1.145 C11.062,1.056 10.538,1 10,1 C9.46200004,1 8.93800004,1.056 8.42600004,1.145"></path>
                <path d="M18.5180001,6.97300003 C18.8710001,7.94200003 19.0730001,8.98300004 19.0730001,10.073"></path>
                <path d="M16.9480001,4.24300002 C16.2700001,3.43600001 15.4510001,2.75300001 14.5330001,2.22200001"></path>
                <path d="M5.46700002,2.22200001 C4.54900002,2.75300001 3.73100002,3.43600001 3.05200001,4.24300002"></path>
                <path d="M0.927000004,10.073 C0.927000004,8.98200004 1.129,7.94100003 1.48200001,6.97300003"></path>
                <path d="M5.46700002,17.9240001 C6.36700003,18.4450001 7.36400003,18.8140001 8.42600004,19.0000001"></path>
                <path d="M1.48200001,13.1730001 C1.84800001,14.1770001 2.37800001,15.1000001 3.05200001,15.9030001"></path>
                <path d="M11.574,19.0000001 C12.6360001,18.8140001 13.6320001,18.4450001 14.5330001,17.9240001"></path>
                <path d="M16.9480001,15.9030001 C17.6220001,15.1000001 18.1520001,14.1770001 18.5180001,13.1730001"></path>
            </g>
            <rect id="Rectangle" x="0" y="0" width="24.0000001" height="24.0000001"></rect>
        </g>
    </g>
</svg>