<?xml version="1.0" encoding="UTF-8"?>
<svg width="24px" height="24px" viewBox="0 0 24 24" version="1.1" xmlns="http://www.w3.org/2000/svg" xmlns:xlink="http://www.w3.org/1999/xlink">
    <title>Group</title>
    <g id="Page-1" stroke="none" stroke-width="1" fill="none" fill-rule="evenodd">
        <g id="Group">
            <g stroke-linecap="round" stroke-linejoin="round" transform="translate(2.000000, 2.000000)" id="Path" stroke="#323232" stroke-width="1.5">
                <line x1="16.6300001" y1="3.37000001" x2="17.3500001" y2="2.65000001"></line>
                <line x1="17.3700001" y1="12.3900001" x2="16.6100001" y2="11.62"></line>
                <line x1="8.36000003" y1="3.37000001" x2="7.64000003" y2="2.65000001"></line>
                <path d="M2.20500001,19.2070001 L0.793000003,17.7940001 C0.402000002,17.4030001 0.402000002,16.7700001 0.793000003,16.3790001 L10.37,6.79800003 C10.761,6.40700003 11.394,6.40700003 11.784,6.79800003 L13.1960001,8.21100003 C13.5870001,8.60200004 13.5870001,9.23500004 13.1960001,9.62600004 L3.61900002,19.2070001 C3.22900001,19.5980001 2.59600001,19.5980001 2.20500001,19.2070001 Z"></path>
                <line x1="11.2" y1="11.62" x2="8.37000003" y2="8.80000004"></line>
                <line x1="12.4900001" y1="1.52000001" x2="12.4900001" y2="0.500000002"></line>
                <line x1="18.4800001" y1="7.51000003" x2="19.5000001" y2="7.51000003"></line>
            </g>
            <polygon id="Path" points="0 0 24.0000001 0 24.0000001 24.0000001 0 24.0000001"></polygon>
        </g>
    </g>
</svg>