<?xml version="1.0" encoding="UTF-8"?>
<svg width="24px" height="24px" viewBox="0 0 24 24" version="1.1" xmlns="http://www.w3.org/2000/svg" xmlns:xlink="http://www.w3.org/1999/xlink">
    <title>Group</title>
    <g id="Page-1" stroke="none" stroke-width="1" fill="none" fill-rule="evenodd">
        <g id="Group" transform="translate(-0.000000, -0.000000)">
            <g stroke-linecap="round" stroke-linejoin="round" transform="translate(3.000000, 3.000000)" id="Path" stroke="#323232" stroke-width="1.5">
                <path d="M2.06200001,15.9380001 L2.06200001,15.9380001 C4.81100002,18.6870001 9.26800004,18.6870001 12.0170001,15.9380001 L17.7060001,10.249 C18.0990001,9.85600004 18.0990001,9.22000004 17.7060001,8.82700004 L16.2840001,7.40500003 C15.8910001,7.01200003 15.2550001,7.01200003 14.8620001,7.40500003 L9.15500004,13.1120001 C7.97000003,14.2970001 6.04500003,14.2890001 4.87000002,13.0930001 L4.87000002,13.0930001 C3.70900002,11.912 3.71800002,10.016 4.88900002,8.84500004 L10.596,3.13800001 C10.989,2.74500001 10.989,2.10900001 10.596,1.71600001 L9.17400004,0.294000001 C8.78100004,-0.0990000004 8.14500003,-0.0990000004 7.75200003,0.294000001 L2.06200001,5.98300002 C-0.687000003,8.73200004 -0.687000003,13.1890001 2.06200001,15.9380001 L2.06200001,15.9380001 Z"></path>
                <line x1="15.5700001" y1="12.3800001" x2="12.7300001" y2="9.54000004"></line>
                <line x1="8.46000004" y1="5.27000002" x2="5.62000002" y2="2.43000001"></line>
            </g>
            <polygon id="Path" points="0 0 24.0000001 0 24.0000001 24.0000001 0 24.0000001"></polygon>
        </g>
    </g>
</svg>