<?xml version="1.0" encoding="UTF-8"?>
<svg width="24px" height="24px" viewBox="0 0 24 24" version="1.1" xmlns="http://www.w3.org/2000/svg" xmlns:xlink="http://www.w3.org/1999/xlink">
    <title>Polygonal selection</title>
    <g id="Polygonal-selection" stroke="none" stroke-width="1" fill="none" fill-rule="evenodd">
        <g id="Group" transform="translate(-0.000000, -0.000000)">
            <g stroke-linecap="round" stroke-linejoin="round" transform="translate(1.000000, 1.000000)" id="Path" stroke="#323232" stroke-width="1.5">
                <line x1="9.93933986" y1="21.0606603" x2="12.0606602" y2="18.9393399"></line>
                <line x1="12.0606602" y1="0.939339835" x2="9.93933986" y2="3.06066018"></line>
                <line x1="21.0606602" y1="12.0606602" x2="18.9393399" y2="9.93933987"></line>
                <line x1="0.939339826" y1="9.93933987" x2="3.06066017" y2="12.0606602"></line>
                <path d="M20.0000001,6 L20.0000001,4 C20.0000001,2.89500001 19.1050001,2 18.0000001,2 L16.0000001,2" transform="translate(18.000000, 4.000000) rotate(-315.000000) translate(-18.000000, -4.000000) "></path>
                <path d="M2,16.0000001 L2,18.0000001 C2,19.1050001 2.89500001,20.0000001 4,20.0000001 L6,20.0000001" transform="translate(4.000000, 18.000000) rotate(-315.000000) translate(-4.000000, -18.000000) "></path>
                <path d="M6,2 L4,2 C2.89500001,2 2,2.89500001 2,4 L2,6" transform="translate(4.000000, 4.000000) rotate(-315.000000) translate(-4.000000, -4.000000) "></path>
                <path d="M16.0000001,20.0000001 L18.0000001,20.0000001 C19.1050001,20.0000001 20.0000001,19.1050001 20.0000001,18.0000001 L20.0000001,16.0000001" transform="translate(18.000000, 18.000000) rotate(-315.000000) translate(-18.000000, -18.000000) "></path>
            </g>
            <polygon id="Path" points="0 0 24.0000001 0 24.0000001 24.0000001 0 24.0000001"></polygon>
        </g>
    </g>
</svg>