<?xml version="1.0" encoding="UTF-8"?>
<svg width="24px" height="24px" viewBox="0 0 24 24" version="1.1" xmlns="http://www.w3.org/2000/svg" xmlns:xlink="http://www.w3.org/1999/xlink">
    <title>Group</title>
    <g id="Page-1" stroke="none" stroke-width="1" fill="none" fill-rule="evenodd">
        <g id="Path" transform="translate(-0.000000, -0.000000)">
            <polygon points="0 0 24.0000001 0 24.0000001 24.0000001 0 24.0000001"></polygon>
            <polyline stroke="#323232" stroke-width="1.5" stroke-linecap="round" stroke-linejoin="round" points="5.54200002 16.2190001 3.22500001 18.5370001 4.58200002 20.1480001 7.22900003 20.1480001 8.36900003 19.0500001"></polyline>
            <path d="M11.003,17.8300001 L10.296,18.5370001 C9.51500004,19.3180001 8.24900003,19.3180001 7.46800003,18.5370001 L6.05400003,17.1230001 C5.27300002,16.3420001 5.27300002,15.0760001 6.05400003,14.2950001 L6.76100003,13.5880001" stroke="#323232" stroke-width="1.5" stroke-linecap="round" stroke-linejoin="round"></path>
            <path d="M20.9940001,6.60700003 L17.9830001,3.59600001 C17.2380001,2.85100001 16.0440001,2.81200001 15.2520001,3.50500001 L6.95500003,10.765 C6.08400003,11.527 6.04000003,12.8660001 6.85800003,13.6840001 L10.906,17.7320001 C11.724,18.5500001 13.0640001,18.5050001 13.8250001,17.6350001 L21.0850001,9.33800004 C21.7780001,8.54600004 21.7380001,7.35200003 20.9940001,6.60700003 Z" stroke="#323232" stroke-width="1.5" stroke-linecap="round" stroke-linejoin="round"></path>
        </g>
    </g>
</svg>