<?xml version="1.0" encoding="UTF-8"?>
<svg width="24px" height="24px" viewBox="0 0 24 24" version="1.1" xmlns="http://www.w3.org/2000/svg" xmlns:xlink="http://www.w3.org/1999/xlink">
    <title>Group</title>
    <g id="Page-1" stroke="none" stroke-width="1" fill="none" fill-rule="evenodd">
        <g id="Group">
            <g stroke-linecap="round" stroke-linejoin="round" transform="translate(2.000000, 2.000000)" id="Path" stroke="#323232" stroke-width="1.5">
                <line x1="8.50000004" y1="19.0000001" x2="11.5" y2="19.0000001"></line>
                <line x1="11.5" y1="1" x2="8.50000004" y2="1"></line>
                <line x1="19.0000001" y1="11.5" x2="19.0000001" y2="8.50000004"></line>
                <line x1="1" y1="8.50000004" x2="1" y2="11.5"></line>
                <path d="M19.0000001,5 L19.0000001,3 C19.0000001,1.89500001 18.1050001,1 17.0000001,1 L15.0000001,1"></path>
                <path d="M1,15.0000001 L1,17.0000001 C1,18.1050001 1.89500001,19.0000001 3,19.0000001 L5,19.0000001"></path>
                <path d="M5,1 L3,1 C1.89500001,1 1,1.89500001 1,3 L1,5"></path>
                <path d="M15.0000001,19.0000001 L17.0000001,19.0000001 C18.1050001,19.0000001 19.0000001,18.1050001 19.0000001,17.0000001 L19.0000001,15.0000001"></path>
            </g>
            <polygon id="Path" points="0 0 24.0000001 0 24.0000001 24.0000001 0 24.0000001"></polygon>
        </g>
    </g>
</svg>